#!OML:ASF F:\VICON\USERDATA\INSTALL\rory3\rory3.ASF
:FULLY-SPECIFIED
:DEGREES
2584
root -0.105828 17.9583 1.38686 19.5108 21.7786 -1.29409
lowerback 28.6584 5.04816 1.5824
upperback 7.39591 6.90409 -0.379961
thorax -7.17212 3.30659 -3.64124
lowerneck -14.7142 -7.4416 -9.11831
upperneck 13.1595 -10.0147 11.4278
head 7.52303 -4.29251 4.09581
rclavicle 1.82882e-014 1.98785e-014
rhumerus 30.008 -40.3081 -52.5431
rradius 14.5843
rwrist 12.5465
rhand -21.7307 4.94799
rfingers 7.12502
rthumb 4.66886 -24.9806
lclavicle 1.82882e-014 1.98785e-014
lhumerus -35.2506 33.6085 9.15891
lradius 14.9031
lwrist 0.146493
lhand -19.2261 24.4409
lfingers 7.12502
lthumb 7.08691 54.3022
rfemur -27.0469 11.0912 1.06349
rtibia 26.7253
rfoot -24.2676 -28.6661
rtoes -2.93687
lfemur -48.2744 -10.1433 0.455308
ltibia 33.3938
lfoot -5.75411 0.119035
ltoes -11.6007
2585
root -0.128005 17.9734 1.42029 18.4352 21.4552 -1.42608
lowerback 28.4848 4.81739 1.56579
upperback 7.29525 6.6009 -0.487784
thorax -7.20882 3.1628 -3.64297
lowerneck -14.5612 -7.49305 -9.27991
upperneck 13.1474 -10.0942 11.6059
head 7.52016 -4.32963 4.17449
rclavicle -5.725e-014 2.14687e-014
rhumerus 29.6037 -40.1443 -52.3767
rradius 14.6751
rwrist 12.489
rhand -21.8184 5.02895
rfingers 7.12502
rthumb 4.58413 -24.9014
lclavicle -5.725e-014 2.14687e-014
lhumerus -34.7188 32.4651 10.3507
lradius 14.9978
lwrist 0.77973
lhand -19.6721 24.2883
lfingers 7.12502
lthumb 6.65639 54.1637
rfemur -25.9156 11.4045 1.5227
rtibia 26.5446
rfoot -23.9791 -28.4875
rtoes -3.00316
lfemur -46.8359 -10.1236 0.29286
ltibia 33.3061
lfoot -6.00259 0.053084
ltoes -11.6661
2586
root -0.15067 17.9849 1.45051 17.5788 21.0331 -1.60909
lowerback 28.1002 4.63029 1.5045
upperback 7.13082 6.33892 -0.585059
thorax -7.21888 3.03851 -3.60693
lowerneck -14.2935 -7.51465 -9.45576
upperneck 13.0441 -10.1194 11.7211
head 7.45861 -4.35319 4.24444
rclavicle -2.94201e-014 -1.82882e-014
rhumerus 29.2631 -39.8003 -52.116
rradius 14.7186
rwrist 12.246
rhand -21.6519 4.80576
rfingers 7.12502
rthumb 4.74494 -25.1211
lclavicle -2.94201e-014 -1.82882e-014
lhumerus -34.5943 32.3321 10.8112
lradius 15.0442
lwrist 0.748505
lhand -19.5184 24.2939
lfingers 7.12502
lthumb 6.8047 54.1645
rfemur -25.0748 11.7293 1.92802
rtibia 26.3178
rfoot -23.6181 -28.3124
rtoes -3.11608
lfemur -45.6455 -9.99678 0.258191
ltibia 33.2124
lfoot -6.1963 0.0554928
ltoes -11.4846
2587
root -0.170771 17.997 1.4837 16.8041 20.671 -1.80885
lowerback 27.6186 4.45275 1.53521
upperback 6.97368 6.11517 -0.662918
thorax -7.1624 2.93369 -3.60566
lowerneck -14.1665 -7.60006 -9.58896
upperneck 12.9429 -10.2063 11.688
head 7.41831 -4.41158 4.24614
rclavicle -2.74323e-014 5.84427e-014
rhumerus 29.0513 -39.8123 -51.9216
rradius 14.6615
rwrist 12.542
rhand -21.428 4.61312
rfingers 7.12502
rthumb 4.96105 -25.3088
lclavicle -2.74323e-014 5.84427e-014
lhumerus -34.2978 31.8842 11.6345
lradius 15.1633
lwrist 1.14402
lhand -19.0585 23.956
lfingers 7.12502
lthumb 7.24864 53.8118
rfemur -24.2697 11.9678 2.3695
rtibia 26.1056
rfoot -23.3277 -28.1383
rtoes -3.47122
lfemur -44.544 -9.95449 0.309998
ltibia 33.1108
lfoot -6.39896 0.107469
ltoes -11.2404
2588
root -0.195285 18.0085 1.52095 16.1361 20.323 -1.82988
lowerback 27.1027 4.30572 1.41774
upperback 6.80375 5.88314 -0.816331
thorax -7.10899 2.82624 -3.60089
lowerneck -14.0406 -7.69303 -9.6778
upperneck 12.8445 -10.3348 11.7788
head 7.38926 -4.47702 4.27652
rclavicle -3.57812e-014 7.55382e-014
rhumerus 28.8588 -40.1921 -51.9927
rradius 14.6098
rwrist 13.2502
rhand -21.39 4.88502
rfingers 7.12502
rthumb 4.99775 -25.036
lclavicle -3.57812e-014 7.55382e-014
lhumerus -33.8844 31.5565 12.4359
lradius 15.1705
lwrist 1.29931
lhand -19.0101 23.2978
lfingers 7.12502
lthumb 7.29537 53.1521
rfemur -23.5057 12.2288 2.63742
rtibia 25.937
rfoot -23.0895 -28.004
rtoes -3.8232
lfemur -43.4612 -9.90504 0.188089
ltibia 32.9608
lfoot -6.59052 0.0800734
ltoes -11.1602
